<?xml version="1.0" standalone="no"?>
<!DOCTYPE svg PUBLIC "-//W3C//DTD SVG 20010904//EN"
 "http://www.w3.org/TR/2001/REC-SVG-20010904/DTD/svg10.dtd">
<svg version="1.0" xmlns="http://www.w3.org/2000/svg"
 width="296.000000pt" height="172.000000pt" viewBox="0 0 296.000000 172.000000"
 preserveAspectRatio="xMidYMid meet">
<metadata>
Created by potrace 1.15, written by Peter Selinger 2001-2017
</metadata>
<g transform="translate(0.000000,172.000000) scale(0.100000,-0.100000)"
fill="#000000" stroke="none">
<path d="M2106 1503 c14 -32 57 -131 97 -221 39 -89 74 -159 78 -155 8 9 199
419 199 427 0 3 -90 6 -200 6 l-200 0 26 -57z"/>
<path d="M2797 1543 c-12 -11 -8 -953 3 -953 7 0 10 167 10 480 0 264 -1 480
-3 480 -2 0 -7 -3 -10 -7z"/>
<path d="M2760 1045 c0 -297 3 -455 10 -455 7 0 10 158 10 455 0 297 -3 455
-10 455 -7 0 -10 -158 -10 -455z"/>
<path d="M2729 1431 c-6 -16 -17 -32 -25 -35 -12 -5 -14 -68 -14 -406 l0 -400
30 0 30 0 0 435 c0 239 -2 435 -6 435 -3 0 -10 -13 -15 -29z"/>
<path d="M2667 1343 c-12 -11 -8 -753 3 -753 6 0 10 133 10 380 0 209 -1 380
-3 380 -2 0 -7 -3 -10 -7z"/>
<path d="M2632 1288 c-9 -9 -12 -102 -12 -355 0 -298 2 -343 15 -343 13 0 15
46 15 355 0 195 -1 355 -3 355 -2 0 -8 -5 -15 -12z"/>
<path d="M820 301 l0 -181 35 0 35 0 -2 178 -3 177 -32 3 -33 3 0 -180z"/>
<path d="M990 300 l0 -180 33 0 34 0 6 162 c4 99 2 168 -4 180 -6 11 -21 18
-39 18 l-30 0 0 -180z"/>
<path d="M1850 311 c0 -191 0 -191 74 -191 33 0 36 2 36 29 0 20 -6 30 -20 34
-18 5 -20 14 -20 85 0 71 2 80 20 85 27 7 27 47 1 47 -16 0 -20 8 -23 38 -3
34 -6 37 -35 40 l-33 3 0 -170z"/>
<path d="M192 395 c-40 -18 -62 -65 -62 -135 0 -95 41 -140 128 -140 48 0 58
4 88 34 19 19 34 39 34 45 0 17 -66 13 -80 -4 -19 -23 -66 -19 -84 7 -23 33
-21 103 4 128 24 24 39 25 66 5 10 -8 36 -15 57 -15 l38 0 -16 31 c-28 53
-106 73 -173 44z"/>
<path d="M535 396 c-48 -21 -68 -70 -63 -150 4 -62 7 -71 36 -97 27 -24 41
-29 87 -29 46 0 60 5 87 29 29 26 33 35 36 98 5 85 -13 128 -63 149 -42 17
-81 17 -120 0z m95 -66 c14 -14 20 -33 20 -67 0 -53 -20 -83 -56 -83 -64 0
-76 141 -14 163 25 9 29 8 50 -13z"/>
<path d="M1221 398 c-62 -34 -87 -123 -56 -203 20 -53 54 -75 115 -75 63 0
120 37 120 79 0 17 -66 13 -80 -4 -25 -30 -90 -8 -90 31 0 11 19 14 90 14 l90
0 0 30 c0 39 -21 90 -47 113 -26 23 -110 32 -142 15z"/>
<path d="M1563 395 c-50 -21 -70 -75 -65 -173 1 -24 12 -44 36 -68 31 -31 40
-34 91 -34 51 0 60 3 91 34 19 19 34 39 34 45 0 17 -66 13 -80 -4 -17 -21 -63
-19 -83 3 -25 27 -23 106 3 132 24 24 39 25 66 5 10 -8 36 -15 57 -15 l38 0
-18 31 c-31 54 -104 73 -170 44z"/>
<path d="M2643 395 c-80 -34 -94 -184 -23 -247 25 -23 40 -28 83 -28 59 0 89
16 112 61 l16 29 -33 0 c-18 0 -42 -7 -52 -15 -28 -22 -63 -18 -80 7 -9 12
-16 26 -16 30 0 5 41 8 90 8 l90 0 0 36 c0 103 -91 161 -187 119z"/>
<path d="M2060 261 l0 -141 35 0 36 0 -3 138 -3 137 -32 3 -33 3 0 -140z"/>
<path d="M2220 395 c0 -3 21 -66 47 -140 l47 -135 37 0 c42 0 34 -15 103 183
l34 97 -39 0 c-44 0 -48 -5 -73 -102 -10 -38 -22 -68 -26 -68 -5 0 -18 38 -31
85 l-22 85 -39 0 c-21 0 -38 -2 -38 -5z"/>
</g>
</svg>
